<?xml version="1.0" standalone="no"?>
<!DOCTYPE svg PUBLIC "-//W3C//DTD SVG 20010904//EN"
 "http://www.w3.org/TR/2001/REC-SVG-20010904/DTD/svg10.dtd">
<svg version="1.0" xmlns="http://www.w3.org/2000/svg"
 width="150.000000pt" height="225.000000pt" viewBox="0 0 150.000000 225.000000"
 preserveAspectRatio="xMidYMid meet">

<g transform="translate(0.000000,225.000000) scale(0.100000,-0.100000)"
fill="#000000" stroke="none">
<path d="M527 2239 c-93 -22 -185 -87 -235 -167 -64 -100 -62 -69 -62 -1016 0
-845 1 -862 21 -906 25 -55 62 -95 114 -123 38 -21 54 -22 382 -25 222 -2 356
1 382 8 51 13 96 51 124 104 l22 41 3 908 c3 1003 6 946 -61 987 -27 17 -51
20 -148 20 -103 0 -119 -2 -143 -21 -26 -20 -26 -20 -59 -1 -17 11 -54 22 -80
26 -77 10 -137 66 -137 129 0 46 -36 56 -123 36z m78 -115 c32 -65 78 -99 153
-114 62 -11 87 -24 96 -46 3 -8 6 -69 6 -134 0 -105 -2 -120 -18 -129 -16 -9
-21 -3 -36 44 -19 62 -79 130 -141 160 -50 24 -150 31 -202 15 -21 -7 -55 -23
-75 -36 -32 -21 -41 -22 -64 -12 -23 11 -25 16 -20 51 12 76 73 165 142 208
30 18 101 46 125 48 4 1 19 -24 34 -55z m587 -141 c12 -10 18 -30 18 -57 l0
-41 -135 -68 c-74 -37 -137 -67 -140 -67 -3 0 -5 47 -5 105 0 142 3 145 142
145 80 0 105 -3 120 -17z m-559 -139 c43 -22 76 -53 95 -89 15 -30 33 -95 26
-95 -9 0 -324 160 -324 165 0 2 12 11 28 19 37 20 135 20 175 0z m-142 -135
c100 -49 180 -92 178 -93 -2 -2 -86 -45 -186 -95 l-183 -91 0 185 c0 102 2
185 5 185 3 0 87 -41 186 -91z m719 -714 c0 -873 2 -843 -55 -895 l-27 -25
-331 -3 c-183 -2 -347 0 -365 3 -37 7 -96 55 -118 96 -12 24 -14 121 -14 603
l0 576 448 224 c246 124 450 225 455 225 4 1 7 -361 7 -804z"/>
<path d="M521 1286 c-8 -9 -10 -149 -9 -501 3 -443 5 -489 20 -498 12 -8 21
-7 32 2 14 12 16 68 16 500 0 494 -1 511 -36 511 -6 0 -17 -6 -23 -14z"/>
<path d="M731 1286 c-8 -9 -10 -149 -9 -501 3 -443 5 -489 20 -498 12 -8 21
-7 32 2 14 12 16 68 16 500 0 494 -1 511 -36 511 -6 0 -17 -6 -23 -14z"/>
<path d="M941 1286 c-8 -9 -10 -149 -9 -501 3 -443 5 -489 20 -498 12 -8 21
-7 32 2 14 12 16 68 16 500 0 494 -1 511 -36 511 -6 0 -17 -6 -23 -14z"/>
</g>
</svg>
